<?xml version="1.0"?>
<svg width="200" height="200" xmlns="http://www.w3.org/2000/svg">
 <g>
  <title>Layer 1</title>
  <g transform="rotate(-179.14942932128906 99.8330078125,99.50150299072264) ">
   <path fill="#ffffff" d="m172.597,92.110001c-6.800003,-1.759003 -15.091995,-0.611 -22.069,-0.499001c-8.445007,0.136002 -17.041,0.607002 -25.334999,2.363998c-0.006004,-0.008995 0.000999,-0.017998 -0.006004,-0.027c-0.071999,-0.095001 -0.155998,-0.178001 -0.227997,-0.272995c-0.862999,-12.003006 -1.052002,-24.009003 -1.098,-36.016003c0.025002,-0.084999 0.015999,-0.163002 -0.000999,-0.255001c-0.062004,-17.232998 0.170998,-34.466999 -0.809998,-51.692999c-0.013,-0.228 -0.147003,-0.352 -0.241005,-0.514c-0.166,-0.728 -0.710999,-1.342 -1.685997,-1.308c-15.908005,0.561 -31.809998,-0.561 -47.714005,-0.202c-0.560997,-1.095 -2.458,-0.922 -2.576996,0.299c-0.772003,0.517 -0.704002,1.667 0.173996,2.084c2.521004,21.509 -0.717995,43.314998 -0.363998,64.847c-0.181,0.090004 -0.262001,0.379997 -0.042999,0.538002c0.017998,0.013 0.034004,0.027 0.052002,0.040001c0.157997,8.101997 0.821999,16.165001 2.528,24.155998c-0.106003,-0.027 -0.148003,-0.113998 -0.267998,-0.124001c-0.167,-0.014 -0.339005,-0.037003 -0.508003,-0.053001c-0.004997,-0.003998 -0.009003,-0.009003 -0.014,-0.014c-0.036003,-0.033997 -0.068001,0.013 -0.108002,0.000999c-14.304996,-1.349998 -31.628998,-7.348 -45.651999,-2.788002c-0.625999,0.203003 -0.826,0.947006 -0.379,1.433006c0.063999,0.069 0.128,0.139 0.191,0.208c0.111,0.120995 0.268,0.18 0.43,0.194c-0.169001,0.238998 -0.257999,0.530998 -0.062,0.878998c19.836,35.172997 45.991003,69.933998 72.950987,100.066994c0.857002,0.957001 2.007004,0.529007 2.555,-0.307999c21.276001,-14.17099 32.078003,-37.138 45.951004,-57.791992c8.649994,-12.879005 19.503006,-27.642006 25.255997,-42.053001c0.156006,-0.390999 0.052002,-0.716003 -0.132996,-0.998001c0.474014,-0.751999 0.215012,-1.931999 -0.791992,-2.193001zm-95.716003,-55.190002c0.055,-2.605 0.063004,-5.201998 0.006004,-7.786999c11.531998,15.400002 29.574997,25.526001 43.215996,38.996998c0.082001,2.770004 0.109001,5.542999 0.243004,8.309006c-12.050003,-15.009003 -29.085999,-26.750004 -43.465004,-39.519005zm43.555,41.637001c0.040001,0.746002 0.108002,1.489998 0.152,2.236c-11.514999,-14.398003 -29.929001,-24.201 -43.766998,-35.815998c-0.084999,-0.071003 -0.177002,-0.080002 -0.266998,-0.086002c0.112,-2.252998 0.248001,-4.510998 0.307999,-6.754997c14.227997,13.711998 28.876999,27.256996 43.573997,40.420998zm-16.371994,-26.805c-9.569,-7.302998 -19.808006,-14.281998 -27.201004,-23.939999c-0.012001,-0.014999 -0.029999,-0.012001 -0.042,-0.025c-0.055,-1.794001 -0.142998,-3.583 -0.267998,-5.364c12.415001,15.054001 27.698997,27.768002 43.43,39.243c0.021996,1.291 0.014,2.583 0.044998,3.873001c-4.042999,-5.539001 -10.723999,-9.787003 -15.963997,-13.787003zm15.875999,3.821003c0.009995,1.320999 -0.000999,2.641998 0.016998,3.962997c-15.374001,-11.834 -30.335999,-23.966 -43.511002,-38.259998c-0.171997,-2.157001 -0.432999,-4.299002 -0.732002,-6.433001c12.232002,15.712 28.932007,28.025 44.226006,40.730001zm-44.307999,-41.449002c-0.301003,-2.035999 -0.728004,-4.049 -1.175003,-6.058c9.426003,8.738001 19.685997,16.506001 28.893997,25.490999c4.234001,4.132 8.854004,8.077 13.401001,11.864002c1.082001,0.900997 1.994003,2.400997 3.212997,3.227997c-0.001999,1.511002 -0.040993,3.022003 -0.034996,4.532001c-13.938004,-13.863998 -31.499001,-23.816999 -44.297997,-39.057zm0.876999,31.749002c14.360001,13.011997 30.425995,23.613998 44.237999,37.266998c0.130997,1.996002 0.238998,3.994003 0.405998,5.987c-13.100998,-14.994995 -30.440002,-25.765999 -44.811996,-39.541c0.073997,-1.239998 0.103996,-2.473 0.167999,-3.712997zm44.083,-38.333001c-0.041,1.792 -0.062004,3.592 -0.090004,5.389c-2.677002,-2.214 -6.014,-3.821 -9.216995,-5.292c3.101997,0.014 6.203995,-0.002 9.306999,-0.097zm-12.018005,0.068c0.014999,0.009 0.012001,0.026 0.028,0.035c4.140999,2.17 7.908005,4.723 11.868004,7.147c-0.014999,1.009 -0.033005,2.016 -0.050003,3.023999c-1.055,-0.452999 -2.326996,-1.339998 -2.834999,-1.629999c-2.028999,-1.156 -3.976997,-2.459 -5.920998,-3.752c-2.367004,-1.575 -4.68,-3.228 -7.003998,-4.865c1.304993,0.023 2.609993,0.026 3.913994,0.041zm-14.239998,-0.316c0.023003,0.03 -0.015999,0.073 0.027,0.095c4.797997,2.439 9.18,5.647 13.514999,8.815c3.694,2.700001 7.399002,6.269001 11.661003,8.034c0.506996,0.209999 0.959,-0.586 0.538994,-0.926001c-7.334,-5.941999 -15.980995,-11.981999 -24.603996,-15.970999c2.343002,0.085 4.685997,0.118 7.029999,0.173c3.854004,2.709 7.627998,5.531 11.515999,8.192c1.164001,0.796999 4.105003,3.316 6.375999,3.747999c-0.064995,4.085001 -0.148994,8.162001 -0.203995,12.249001c-8.650002,-9.807001 -21.254005,-18.616 -32.628006,-24.684c2.257004,0.101 4.514,0.19 6.772003,0.275zm-7.119003,-0.289c-0.139999,0.087 -0.220993,0.253 -0.034996,0.358c12.492996,7.072 21.991997,17.145 32.798996,26.332001c0.056007,0.047001 0.117004,0.027 0.176003,0.056c-0.025002,2.089001 -0.085999,4.172001 -0.103996,6.262001c-2.284004,-0.964001 -5.372002,-4.139 -6.673004,-5.165001c-4.302002,-3.392 -8.500999,-6.915001 -12.681999,-10.456001c-6.676003,-5.653 -13.405998,-11.329 -19.704002,-17.404999c-0.217995,-0.211 -0.546997,0.117 -0.333,0.332c7.386002,7.448 15.350006,14.380001 23.236,21.287c3.811005,3.339001 7.649002,6.673 11.673004,9.755001c1.128998,0.863998 2.82,2.513 4.467003,3.049c-0.013,1.655998 -0.048004,3.311001 -0.054001,4.966c-1.305,-1.982002 -4.524002,-4.086002 -5.867004,-5.228001c-4.193001,-3.563999 -8.361,-7.251999 -12.333,-11.056999c-8.628998,-8.267 -18.611,-14.97 -27.502998,-22.948001c-0.056999,-0.244 -0.083,-0.493 -0.142998,-0.736c4.359001,0.198 8.718994,0.404 13.079994,0.598zm14.786003,185.810004c-26.928001,-30.294006 -50.806999,-64.894997 -73.656,-98.321007c-0.126999,-0.184998 -0.297998,-0.254997 -0.466999,-0.313995c0.396,-0.167 0.792,-0.334 1.188,-0.500999c0.063,-0.016998 0.065001,-0.079002 0.082001,-0.130005c0.511999,1.135002 1.458,1.470001 2.811998,1.051003c13.607002,16.945 24.299,36.012016 38.206001,52.702003c11.768997,14.123001 27.475998,24.82399 36.028,41.5c0.015999,0.030991 0.051003,0.029999 0.07,0.056c-1.411003,1.328003 -2.778999,2.696991 -4.263,3.957001zm5.179001,-4.806c-5.833,-13.833008 -18.411003,-24.132004 -28.739998,-34.574997c-17.496002,-17.687012 -29.638004,-39.790009 -45.318001,-59.02301c1.797997,0.017006 3.593998,0.086006 5.384998,0.246002c0.248001,0.015999 0.493,0.068001 0.742001,0.087997c18.755001,33.380997 48.074997,59.425003 72.409996,88.638c-1.472,1.561996 -2.93,3.137009 -4.478996,4.626007zm5.318001,-5.49501c-22.791,-30.438004 -51.740002,-55.396004 -72.210003,-87.646004c1.851002,0.178001 3.695004,0.439003 5.535004,0.717003c7.563999,15.452995 19.921001,27.657997 31.874996,39.806992c13.480003,13.701004 26.323006,28.062012 38.348,43.059006c-1.169998,1.364014 -2.326996,2.743011 -3.547997,4.063004zm4.504997,-5.158997c-21.792,-27.632004 -53.150997,-50.848 -70.115997,-81.62101c1.655998,0.262001 3.306999,0.554001 4.954998,0.845001c20.285,27.800003 46.188,50.806007 67.721004,77.595009c-0.851006,1.063004 -1.684006,2.141006 -2.560005,3.181zm3.457001,-4.294998c-20.817001,-26.798996 -46.051003,-49.701996 -67.189999,-76.234001c1.41,0.254005 2.834999,0.521004 4.264,0.778c-0.123001,0.123001 -0.16,0.316002 0.014,0.468002c23.892002,20.738998 38.229,54.760002 66.133999,70.605003c-1.082001,1.455002 -2.101997,2.96199 -3.222,4.382996zm4.000999,-5.442993c-26.409996,-19.205002 -40.888,-49.557999 -66.215,-69.885002c2.592003,0.456993 5.207001,0.843994 7.821003,1.031998c20.683998,21.401001 39.431999,44.719994 60.742996,65.491005c-0.790001,1.11499 -1.541,2.261002 -2.348999,3.362zm3.223,-4.613998c-20.092995,-21.369003 -39.117996,-43.961998 -60.376999,-64.188004c1.874001,0.083 3.746002,0.081993 5.605003,-0.143005c0.487,-0.058998 0.815994,-0.280998 1.051994,-0.558998c9.759003,11.024002 18.940002,22.545998 28.594002,33.661995c8.149002,9.383011 17.328003,20.175003 28.600998,26.081009c-1.153992,1.718994 -2.289001,3.451996 -3.474998,5.147003zm4.420998,-6.552002c-22.613998,-16.492004 -37.873993,-39.749992 -57.783005,-59.062996c0.033997,-0.215996 0.029999,-0.438995 -0.020004,-0.653999c0.634003,0.023003 1.286003,-0.331001 1.202003,-1.072998c-0.203003,-1.799004 -0.358002,-3.607002 -0.473999,-5.422005c17.848,22.242004 38.534012,42.554008 59.292992,62.021004c0.116013,0.108994 0.242004,0.121002 0.365005,0.138992c-0.869995,1.345993 -1.696991,2.716995 -2.582993,4.052002zm3.20401,-5.026001c-0.024002,-0.036011 -0.009003,-0.074005 -0.041992,-0.109009c-19.924004,-21.106003 -41.138,-40.763992 -60.305,-62.599983c-0.128006,-2.466003 -0.167,-4.948006 -0.171005,-7.437004c19.787003,23.053001 44.299995,41.441002 63.961998,64.678009c-1.149002,1.822983 -2.277008,3.654984 -3.444,5.467987zm4.306992,-6.839005c-18.713997,-24.273003 -44.286995,-42.098 -64.827011,-64.721001c0.010002,-1.695 0.048004,-3.394997 0.100006,-5.097c14.342995,11.362999 26.074997,25.380005 39.318001,37.997002c7.254997,6.912003 15.463997,12.709999 22.773003,19.569992c1.169998,1.098007 2.23201,2.360001 3.328003,3.528c0.945007,1.008011 1.884003,2.02301 2.818008,3.042007c-1.177002,1.893997 -2.322006,3.787003 -3.51001,5.681zm4.778,-7.737c-5.929993,-10.198997 -20.741997,-18.263 -28.834999,-25.436996c-13.919998,-12.340004 -25.455002,-26.901001 -40.630997,-37.690002c0.090996,-2.638 0.228996,-5.284004 0.381996,-7.933998c18.118004,27.223999 46.060005,47.045998 72.128998,66.129997c-1.01799,1.643997 -2.028,3.285995 -3.044998,4.931zm5.820007,-9.425003c-0.619003,1.018005 -1.261002,2.041 -1.891006,3.061996c-25.705002,-19.983994 -53.860001,-39.056992 -72.87999,-65.984993c-0.015999,-0.022003 -0.040001,-0.018997 -0.057999,-0.037003c0.091003,-1.511997 0.193001,-3.025997 0.292,-4.539997c14.177002,14.424999 29.296997,27.879002 44.386002,41.335003c9.090004,8.106995 19.034004,20.862 30.251991,25.875c0.02301,0.010994 0.040009,-0.003006 0.063004,0.004997c-0.053009,0.090996 -0.110001,0.196999 -0.164001,0.284996zm0.753998,-1.304001c-0.016006,-0.014 -0.013,-0.033997 -0.031998,-0.046997c-11.972,-8.674995 -22.544998,-20.061996 -33.688004,-29.802002c-13.875999,-12.126999 -27.521004,-24.507996 -41.280998,-36.764996c-0.089005,-0.079002 -0.179001,-0.031002 -0.262001,0.007c0.191002,-2.903 0.381996,-5.805 0.562996,-8.707001c13.628006,14.961998 31.252014,25.690002 45.07,40.556c0.086006,0.953003 0.142006,1.907997 0.237,2.860001c0.048004,0.486 0.271004,0.849998 0.563004,1.121002c-0.182999,0.779999 0.195999,1.722 1.144997,1.607994c0.871002,-0.104996 1.742004,-0.172997 2.613007,-0.265999c9.133995,7.711998 18.21299,16.561005 28.622002,22.457001c-1.268005,2.610001 -2.456009,5.026001 -3.550003,6.977997zm4.039993,-7.982994c-5.862,-4.034004 -11.498993,-8.307999 -17,-12.848c-3.550003,-2.93 -7.15799,-6.154999 -11.081993,-8.707001c2.153999,-0.215004 4.30999,-0.324005 6.463997,-0.476006c6.647995,7.546005 14.511002,13.964005 22.738007,19.725006c-0.378006,0.776001 -0.756012,1.553001 -1.12001,2.306zm1.654999,-3.401001c-7.781998,-5.937004 -15.554001,-11.749001 -22.490997,-18.688004c2.378998,-0.159996 4.758987,-0.287994 7.141998,-0.399994c4.980011,5.665993 11.462997,10.059998 17.927994,13.991997c-0.887985,1.693001 -1.749985,3.407997 -2.578995,5.096001zm3.229004,-6.308998c-5.929993,-4.211006 -12.300003,-7.594002 -17.447998,-12.839005c1.945999,-0.084999 3.897003,-0.130997 5.848007,-0.178001c2.29599,2.395004 4.617996,4.750999 7.158997,6.893005c1.662994,1.402 3.589996,2.989998 5.675995,3.937996c-0.414001,0.725998 -0.834,1.439003 -1.235001,2.186005zm2.065994,-3.661003c-2.143997,-1.311996 -4.339996,-2.495003 -6.359009,-4.094002c-2.088989,-1.654999 -4.047989,-3.471001 -5.987,-5.303001c0.305008,-0.005997 0.609009,-0.022995 0.914001,-0.028c1.85701,-0.029999 3.806,0.046005 5.779007,0.138c2.319992,2.258003 4.893997,4.451004 7.595993,6.217003c-0.65799,0.983002 -1.30899,2.001999 -1.942993,3.07zm2.974014,-4.531998c-2.138992,-1.595001 -4.36499,-3.083 -6.530991,-4.659004c3.608994,0.172005 7.268997,0.309006 10.723999,-0.086998c-1.451019,1.247002 -2.845016,2.890999 -4.193008,4.746002z"/>
  </g>
 </g>
</svg>