<?xml version="1.0" encoding="utf-8"?>
<!-- Generator: Adobe Illustrator 17.0.0, SVG Export Plug-In . SVG Version: 6.00 Build 0)  -->
<!DOCTYPE svg PUBLIC "-//W3C//DTD SVG 1.1//EN" "http://www.w3.org/Graphics/SVG/1.1/DTD/svg11.dtd">
<svg version="1.1" id="Capa_1" xmlns="http://www.w3.org/2000/svg" xmlns:xlink="http://www.w3.org/1999/xlink" x="0px" y="0px"
	 width="200px" height="200px" viewBox="0 0 200 200" enable-background="new 0 0 200 200" xml:space="preserve">
<g>
	<path d="M197.323,104.625c-1.775-24.129-24.098-44.129-47.561-41.713c-12.043-57.028-103.643-47.82-98.886,9.044
		c-25.15-5.358-50.439,16.382-49.483,41.837c1.153,30.705,31.846,28.078,54.265,25.248c2.274,11.724,12.873,18.267,25.289,13.844
		c3.223-1.148,1.901-5.528-1.387-5.031c-10.562,1.154-16.012-3.271-16.351-13.276c-0.006-1.989-1.83-4.273-4.012-4.011
		c-15.709,1.88-41.79,9.02-48.68-10.677C0.115,90.148,32.9,78.972,55.25,79.993c3.79,0.173,4.14-4.77,1.269-6.289
		c1.326-21.736,13.929-37.14,36.033-41.547c23.891-4.763,45.065,10.392,49.584,33.753c0.111,0.577,0.32,1.049,0.582,1.447
		c0.366,1.366,1.574,2.539,3.244,2.655c-0.04,0.052-0.08,0.104-0.119,0.156c12.666-0.032,20.513,0.411,30.367,9.827
		c6.564,6.272,10.869,14.126,12.806,22.916c1.781,8.082-0.376,16.931-5.684,23.199c-6.119,7.227-15.672,6.411-24.119,6.183
		c-1.171-0.032-2.031,0.465-2.624,1.179c-3.533,3.335-7.053,6.512-11.258,8.994c-2.572,1.518-5.519,2.207-8.471,2.373
		c-2.704,0.152-4.732-0.741-7.41-0.048c-2.283,0.59-2.894,3.469-1.348,5.105c4.345,4.597,13.138,3.111,18.287,0.529
		c5.027-2.521,9.074-6.341,11.519-11.237c0.125,0.05,0.213,0.137,0.349,0.175C181.604,145.931,198.981,127.16,197.323,104.625z"/>
	<path d="M133.724,116.872c0.19-0.766,0.114-1.625-0.397-2.51c-6.954-12.03-15.29-23.014-24.263-33.597
		c-0.973-1.148-3.034-1.364-4.267-0.55c-12.387,8.177-24.554,19.578-32.695,32.041c-0.73,1.117-0.37,2.313,0.404,3.143
		c-1.507,0.799-1.324,3.618,0.559,4.285c2.647,0.937,5.335,1.347,8.114,1.685c3.114,0.378,7.191,1.282,10.174,0.211
		c-1.785,8.827-2.225,17.827-2.401,26.816c-0.089,4.493-0.279,9.398-0.085,14.247c-0.496,0.39-0.738,1.177-0.17,1.657
		c0.092,0.077,0.188,0.148,0.28,0.225c0.253,4.013,0.801,7.949,1.97,11.528c0.312,0.955,1.218,1.561,2.171,1.748
		c0.078,0.131,0.137,0.267,0.256,0.387c2.384,2.415,7.592,1.455,10.564,1.188c2.147-0.193,4.807-0.135,6.73-1.195
		c0.243-0.002,0.467-0.066,0.658-0.197c1.673,1.026,4.308,0.575,4.965-1.746c3.183-11.248,2.809-24.155,2.503-35.732
		c-0.11-4.162,0.163-13.39-2.404-18.719c0.004-0.001,0.008-0.005,0.012-0.006c2.922,0.564,5.908,0.801,8.883,0.881
		c3.111,0.083,7.966,0.688,9.064-3.112C134.61,118.637,134.352,117.588,133.724,116.872z M105.915,87.982
		c6.702,8.071,12.914,16.455,18.427,25.364c-0.857-0.738-1.801-1.401-2.647-2.066c-3.302-2.598-6.58-5.229-9.876-7.836
		c-3.168-2.506-6.335-5.017-9.377-7.675c-0.58-0.507-1.991-1.578-3.227-2.732C101.41,91.275,103.638,89.568,105.915,87.982z
		 M82.296,115.821c-1.945,0.002-3.882-0.155-5.815-0.351c2.065-2.474,4.23-4.926,6.479-7.332c2.231,2.906,5.046,5.406,7.977,7.728
		C88.26,115.09,85.074,115.818,82.296,115.821z M85.049,105.966c0.798-0.823,1.632-1.617,2.449-2.426
		c4.715,3.541,9.462,7.039,14.294,10.422c2.963,2.074,6.506,5.226,10.188,6.855c-0.313,1.361-0.46,2.883-0.479,4.504
		c-2.389-1.787-5.211-3.26-6.232-3.939C98.489,116.874,90.554,112.179,85.049,105.966z M96.025,174.765
		c0.173-1.495,0.237-3.01,0.254-4.53c1.186,0.871,2.359,1.759,3.577,2.59c0.545,0.371,1.108,0.76,1.679,1.151
		C99.701,174.277,97.864,174.531,96.025,174.765z M110.032,172.753c-1.029-0.229-2.081-0.115-3.16,0.109
		c-1.843-0.883-3.737-1.699-5.465-2.689c-1.764-1.012-3.478-2.108-5.173-3.232c-0.11-2.705-0.36-5.425-0.61-8.127
		c3.608,3.076,6.9,6.591,10.456,9.675c0.746,0.646,2.485,1.844,4.094,2.399C110.133,171.509,110.065,172.13,110.032,172.753z
		 M110.476,166.9c-0.003-0.002-0.006-0.005-0.01-0.007c-0.756-0.498-1.481-1.072-2.194-1.629c-1.802-1.405-3.532-2.903-5.276-4.377
		c-2.507-2.119-5.022-4.322-7.729-6.217c-0.071-0.903-0.145-1.807-0.195-2.7c-0.099-1.79-0.154-3.573-0.214-5.358
		c3.121,2.396,6.112,4.976,9.174,7.436c2.147,1.724,4.504,4.03,7.174,5.086C110.951,161.722,110.697,164.311,110.476,166.9z
		 M111.562,155.444c-5.407-3.791-11.052-7.574-16.784-10.854c-0.117-4.616-0.08-9.222,0.095-13.832
		c2.119,3.793,5.477,6.943,8.647,9.787c2.091,1.875,5.515,5.616,8.714,6.134C112.062,149.606,111.837,152.528,111.562,155.444z
		 M112.4,142.614c-0.441-0.348-0.897-0.706-1.18-0.885c-2.044-1.284-3.995-2.729-5.89-4.22c-3.511-2.761-7.601-6.009-9.674-10.053
		c-0.141-0.276-0.368-0.428-0.62-0.487c0.105-1.849,0.234-3.699,0.393-5.552c0.106-1.232-0.932-1.911-1.978-1.943
		c0.156-0.594,0.083-1.218-0.165-1.788c1.164,0.886,2.327,1.758,3.453,2.623c3.177,2.441,6.403,4.816,9.558,7.286
		c1.163,0.91,2.305,1.845,3.43,2.802c1.868,1.589,1.245,1.391,1.501-0.299c-0.119,0.784,0.169,1.465,0.638,1.924
		c0.292,3.139,0.646,6.165,0.622,8.483C112.479,141.21,112.421,141.91,112.4,142.614z M114.817,116.843
		c-3.271-2.475-7.851-4.226-11.076-6.217c-4.779-2.95-9.462-6.057-14.131-9.18c2.319-2.216,4.712-4.352,7.156-6.408
		c2.208,3.069,5.932,5.829,7.871,7.606c3.493,3.2,7.138,6.233,10.715,9.337c1.556,1.35,3.295,3.464,5.187,5.089
		C118.62,117.1,116.695,117.048,114.817,116.843z"/>
</g>
</svg>
