<?xml version="1.0"?>
<svg width="200" height="200" xmlns="http://www.w3.org/2000/svg">
 <g>
  <title>Layer 1</title>
  <g>
   <path fill="#ffffff" d="m197.322998,104.625c-1.774994,-24.128998 -24.097992,-44.129002 -47.561005,-41.713001c-12.042999,-57.027999 -103.642994,-47.819999 -98.885994,9.044003c-25.15,-5.358002 -50.438999,16.381996 -49.483009,41.836998c1.153,30.705002 31.846001,28.078003 54.265,25.248001c2.274002,11.723999 12.873001,18.266998 25.289001,13.843994c3.223,-1.147995 1.901001,-5.528 -1.387001,-5.030991c-10.561996,1.153992 -16.012001,-3.271011 -16.351002,-13.276001c-0.005997,-1.988998 -1.829998,-4.27301 -4.011997,-4.011002c-15.709,1.880005 -41.790001,9.020004 -48.680001,-10.677002c-10.40199,-29.741997 22.383012,-40.917999 44.73301,-39.897003c3.790001,0.173004 4.139999,-4.769997 1.269001,-6.288994c1.326,-21.736004 13.928997,-37.140003 36.033001,-41.547001c23.890999,-4.763002 45.065002,10.391998 49.584,33.752987c0.110992,0.577003 0.319992,1.049004 0.582001,1.446999c0.365997,1.366005 1.574005,2.539001 3.244003,2.655006c-0.040009,0.051994 -0.080002,0.103996 -0.119003,0.155998c12.666,-0.032005 20.513,0.410995 30.367004,9.826996c6.563995,6.272003 10.868988,14.125999 12.806,22.916c1.780991,8.082001 -0.376007,16.931 -5.684006,23.199005c-6.119003,7.226997 -15.671997,6.411003 -24.119003,6.182991c-1.17099,-0.031998 -2.030991,0.465012 -2.623993,1.179001c-3.533005,3.335007 -7.053009,6.512009 -11.258011,8.994003c-2.571991,1.518005 -5.518997,2.207001 -8.470993,2.373001c-2.703995,0.152008 -4.731995,-0.740997 -7.410004,-0.048004c-2.282997,0.590012 -2.893997,3.469009 -1.347992,5.105011c4.345001,4.597 13.138,3.110992 18.287003,0.528992c5.026993,-2.520996 9.07399,-6.341003 11.518997,-11.237c0.125,0.050003 0.212997,0.137009 0.348999,0.175003c23.347,6.568008 40.723999,-12.202988 39.065994,-34.737991z"/>
   <path fill="#ffffff" d="m133.723999,116.872002c0.190002,-0.765999 0.113998,-1.625 -0.397003,-2.510002c-6.953995,-12.029999 -15.289993,-23.014 -24.262993,-33.597c-0.973,-1.148003 -3.034004,-1.363998 -4.267006,-0.550003c-12.386993,8.177002 -24.554001,19.578003 -32.695,32.041c-0.729996,1.117004 -0.369995,2.313004 0.403999,3.143005c-1.506996,0.798996 -1.323997,3.617996 0.559006,4.284996c2.646996,0.937004 5.334999,1.347 8.113998,1.685005c3.113998,0.377998 7.191002,1.281998 10.173996,0.210999c-1.784996,8.826996 -2.224998,17.826996 -2.400993,26.815994c-0.089005,4.493011 -0.279007,9.39801 -0.085007,14.247009c-0.495995,0.389999 -0.737999,1.177002 -0.169998,1.656998c0.092003,0.076996 0.188004,0.147995 0.279999,0.224991c0.253006,4.013 0.801003,7.949005 1.970001,11.528c0.312004,0.955002 1.218002,1.561005 2.170998,1.748001c0.078003,0.131012 0.137001,0.266998 0.256004,0.387009c2.384003,2.414993 7.592003,1.455002 10.564003,1.188004c2.146996,-0.193008 4.806999,-0.13501 6.729996,-1.195007c0.243004,-0.001999 0.467003,-0.065994 0.657997,-0.197006c1.673004,1.026001 4.308006,0.575012 4.965004,-1.745987c3.182999,-11.248001 2.808998,-24.155014 2.502998,-35.73201c-0.110001,-4.162003 0.163002,-13.389999 -2.403999,-18.718994c0.003998,-0.000999 0.008003,-0.005005 0.012001,-0.006004c2.921997,0.564003 5.907997,0.801003 8.883003,0.881004c3.110992,0.083 7.966003,0.687996 9.063995,-3.112c0.261002,-0.913002 0.003006,-1.962006 -0.625,-2.678001zm-27.808998,-28.889999c6.701996,8.070999 12.914001,16.454994 18.427002,25.363998c-0.857002,-0.737999 -1.801003,-1.401001 -2.647003,-2.066002c-3.302002,-2.598 -6.580002,-5.228996 -9.875999,-7.835999c-3.167999,-2.505997 -6.334999,-5.016998 -9.376999,-7.675003c-0.580002,-0.506996 -1.991005,-1.577995 -3.227005,-2.731995c2.195007,-1.762001 4.423004,-3.469002 6.700005,-5.055zm-23.619003,27.838997c-1.945,0.001999 -3.881996,-0.154999 -5.814995,-0.350998c2.064995,-2.473999 4.229996,-4.926003 6.478996,-7.332001c2.231003,2.905998 5.045998,5.405998 7.976997,7.727997c-2.676994,-0.776001 -5.862999,-0.047997 -8.640999,-0.044998zm2.753006,-9.854996c0.797997,-0.823006 1.631996,-1.617004 2.448997,-2.426003c4.714996,3.541 9.461998,7.039001 14.293999,10.421997c2.962997,2.074005 6.505997,5.226006 10.188004,6.855003c-0.313004,1.361 -0.460007,2.882996 -0.479004,4.503998c-2.389,-1.787003 -5.210999,-3.260002 -6.232002,-3.938995c-6.779999,-4.508003 -14.714996,-9.203003 -20.219994,-15.416zm10.975998,68.798996c0.172997,-1.494995 0.237,-3.009995 0.253998,-4.529999c1.185997,0.871002 2.359001,1.759003 3.577003,2.589996c0.544998,0.371002 1.107994,0.76001 1.679001,1.151001c-1.834007,0.300995 -3.671005,0.555008 -5.510002,0.789001zm14.006996,-2.011993c-1.028999,-0.228989 -2.081001,-0.11499 -3.159996,0.109009c-1.843002,-0.883011 -3.737,-1.699005 -5.465004,-2.689011c-1.764,-1.011993 -3.477997,-2.108002 -5.172997,-3.231995c-0.110001,-2.705002 -0.360001,-5.425003 -0.610001,-8.126999c3.608002,3.076004 6.900002,6.591003 10.456001,9.675003c0.745995,0.645996 2.485001,1.843994 4.094002,2.399002c-0.041,0.620987 -0.109001,1.241989 -0.142006,1.86499zm0.444,-5.853012c-0.002998,-0.001999 -0.005997,-0.005005 -0.009995,-0.007004c-0.756004,-0.498001 -1.481003,-1.072006 -2.194,-1.628998c-1.802002,-1.404999 -3.532005,-2.903 -5.276001,-4.376999c-2.507004,-2.119003 -5.022003,-4.322006 -7.729004,-6.21701c-0.070999,-0.903 -0.144997,-1.806992 -0.195,-2.699997c-0.098999,-1.789993 -0.153999,-3.572998 -0.213997,-5.358002c3.120995,2.396011 6.112,4.976013 9.173996,7.436005c2.147003,1.723999 4.504005,4.029999 7.174004,5.085999c-0.255005,2.588013 -0.509003,5.177017 -0.730003,7.766006zm1.085999,-11.455994c-5.406998,-3.791 -11.051994,-7.574005 -16.783997,-10.854004c-0.116997,-4.615997 -0.080002,-9.222 0.095001,-13.832001c2.118996,3.792999 5.476997,6.943008 8.646996,9.787003c2.091003,1.875 5.515007,5.615997 8.714005,6.134003c-0.172005,2.927002 -0.397003,5.848999 -0.672005,8.764999zm0.838005,-12.830002c-0.441002,-0.347992 -0.897003,-0.705994 -1.18,-0.884995c-2.043999,-1.283997 -3.995003,-2.729004 -5.889999,-4.220001c-3.511002,-2.761002 -7.601006,-6.009003 -9.674004,-10.053001c-0.140999,-0.276001 -0.367996,-0.428001 -0.619995,-0.487c0.104996,-1.848999 0.233994,-3.699005 0.392998,-5.552002c0.106003,-1.232002 -0.931999,-1.911003 -1.978004,-1.943001c0.156006,-0.594002 0.083,-1.218002 -0.164993,-1.788002c1.163994,0.886002 2.326996,1.758003 3.452995,2.623001c3.177002,2.441002 6.403,4.816002 9.557999,7.286003c1.163002,0.910004 2.305,1.845001 3.43,2.802002c1.868004,1.588989 1.245003,1.390991 1.500999,-0.298996c-0.118996,0.783997 0.169006,1.464996 0.638,1.923996c0.292,3.138992 0.646004,6.164993 0.622002,8.483002c-0.009003,0.705002 -0.067001,1.404999 -0.087997,2.108994zm2.417,-25.770996c-3.271004,-2.475006 -7.850998,-4.226006 -11.076004,-6.217003c-4.778999,-2.949997 -9.461998,-6.056999 -14.130997,-9.18c2.319,-2.215996 4.711998,-4.351997 7.155998,-6.407997c2.208,3.069 5.931999,5.828995 7.871002,7.605995c3.492996,3.200005 7.138,6.233002 10.714996,9.337006c1.556,1.349998 3.295006,3.463997 5.187004,5.088997c-1.918999,0.029999 -3.844002,-0.022003 -5.722,-0.226997z"/>
  </g>
 </g>
</svg>